<?xml version="1.0" encoding="UTF-8" standalone="no"?>
<!-- Copyright 2017 mathsisfun.com -->
<svg xmlns="http://www.w3.org/2000/svg" width="153.2" height="71.3" version="1.1">
<defs/>
<g transform="translate(404.564,-1734.57)">
<path style="color:black; overflow:visible; fill:#0169c9; stroke:#636466; stroke-width:0.17; stroke-linejoin:round;" d="m -391.2,1738.9 c -3.4,-0.9 -7.4,-0.3 -10.6,-0.5 2.8,-2.8 1,3 1.5,4.9 -0.2,15 -0.8,30 -0.6,45 0.2,4.8 -0.3,9.6 0.2,14.3 -1.2,-0.6 2.1,-0.2 3,-0.3 2.2,0 4.5,0 6.7,0 -0,1.6 1.1,4.4 -1.6,3.6 -3.2,-0.2 -6.6,0.3 -9.7,-0.3 -3.3,-1.9 -1.8,-6.2 -2.2,-9.3 -0,-16.5 0,-33 0.6,-49.6 0.2,-3.6 -0.3,-7.2 0.2,-10.7 1.5,-2.2 4.5,-0.9 6.8,-1.2 1.9,0.2 5.5,-0.7 6.1,1.2 -0,1 -0.4,2 -0.3,3 z"/>
<path style="color:black; overflow:visible; fill:#0169c9; stroke:#636466; stroke-width:0.17; stroke-linejoin:round;" d="m -264.2,1738.6 c 3.4,-0.6 7.4,-0.2 10.6,-0.3 -3.2,-3 -0.7,5.9 -1.6,8 0,14.6 0.3,29.2 -0.3,43.8 -0.2,3.9 0.1,8.8 -0.3,12.3 1,-0.4 -2.2,-0.2 -3.1,-0.2 -2.2,0 -4.5,0 -6.7,0 0,1.6 -1.2,4.4 1.6,3.6 3.2,-0.1 6.6,0.3 9.8,-0.2 3.4,-1.8 1.8,-6.5 2.3,-9.5 0.3,-15.6 0.7,-31.1 0.3,-46.7 -0.2,-4.4 0.5,-8.9 -0,-13.3 -1.5,-2.2 -4.5,-1 -6.8,-1.3 -2,0.2 -4.8,-0.5 -6.1,0.7 0.1,1 0.3,2.3 0.3,3.2 z"/>
<text x="-383.4" y="1797.4" style="font-family:'Comic Sans MS'; font-weight:900; font-size:25.7px; color:black; overflow:visible; fill:#fd3301; stroke-width:0.66;">1</text>
<text x="-384" y="1761.2" style="font-family:'Comic Sans MS'; font-weight:900; font-size:25.7px; color:black; overflow:visible; fill:#fd3301; stroke-width:0.66;">6</text>
<text x="-341.9" y="1761.2" style="font-family:'Comic Sans MS'; font-weight:900; font-size:25.7px; color:black; overflow:visible; fill:#fd3301; stroke-width:0.66;">4</text>
<text x="-292.6" y="1797.4" style="font-family:'Comic Sans MS'; font-weight:900; font-size:25.7px; color:black; overflow:visible; fill:#fd3301; stroke-width:0.66;">8</text>
<text x="-302.6" y="1761.2" style="font-family:'Comic Sans MS'; font-weight:900; font-size:25.7px; color:black; overflow:visible; fill:#fd3301; stroke-width:0.66;">24</text>
<text x="-351.9" y="1797.4" style="font-family:'Comic Sans MS'; font-weight:900; font-size:25.7px; color:black; overflow:visible; fill:#fd3301; stroke-width:0.66;">-9</text>
</g>
</svg>
